<svg width="64" height="64" viewBox="0 0 64 64" fill="none" xmlns="http://www.w3.org/2000/svg">
<rect width="64" height="64" rx="32" fill="#FFEDD4"/>
<path d="M39.7333 41.6L37.3333 30.6667L42 26C44 24 44.6667 21.3333 44 20C42.6667 19.3333 40 20 38 22L33.3333 26.6667L22.4 24.2667C21.7333 24.1333 21.2 24.4 20.9333 24.9333L20.5333 25.6C20.2667 26.2667 20.4 26.9333 20.9333 27.3333L28 32L25.3333 36H21.3333L20 37.3333L24 40L26.6667 44L28 42.6667V38.6667L32 36L36.6667 43.0667C37.0667 43.6 37.7333 43.7333 38.4 43.4667L39.0667 43.2C39.6 42.8 39.8667 42.2667 39.7333 41.6Z" stroke="#F54900" stroke-width="2.66667" stroke-linecap="round" stroke-linejoin="round"/>
</svg>
