<svg width="28" height="28" viewBox="0 0 28 28" fill="none" xmlns="http://www.w3.org/2000/svg">
<rect width="28" height="28" rx="14" fill="url(#paint0_linear_49_1156)"/>
<path d="M13.9997 18.1667L12.4997 20.1667C12.0877 20.716 12.4797 21.5 13.1664 21.5H14.8331C15.5198 21.5 15.9118 20.716 15.4997 20.1667L13.9997 18.1667ZM13.9997 18.1667C11.1397 17.699 10.0062 15.8763 9.41634 13.7131M13.9997 18.1667C16.0264 17.699 17.9933 15.8763 18.5831 13.7131M8.87152 9.83333C8.84816 9.18403 8.85412 8.55557 8.88065 7.97338C8.91905 7.13058 9.63467 6.5 10.4783 6.5H17.5211C18.3648 6.5 19.0804 7.13058 19.1188 7.97338C19.1453 8.55557 19.1513 9.18403 19.1279 9.83333M8.87152 9.83333H8.16634C7.7061 9.83333 7.33301 10.2064 7.33301 10.6667V12.5237C7.33301 12.9025 7.5885 13.2337 7.95492 13.3298L9.41634 13.7131M8.87152 9.83333C8.91748 11.1104 9.07687 12.4682 9.41634 13.7131M19.1279 9.83333H19.8331C20.2933 9.83333 20.6664 10.2064 20.6664 10.6667V12.5237C20.6664 12.9025 20.4109 13.2337 20.0445 13.3298L18.5831 13.7131M19.1279 9.83333C19.082 11.1104 18.9226 12.4682 18.5831 13.7131" stroke="white" stroke-linecap="round" stroke-linejoin="round"/>
<defs>
<linearGradient id="paint0_linear_49_1156" x1="6.0039e-07" y1="2.05333" x2="20.6811" y2="6.18092" gradientUnits="userSpaceOnUse">
<stop stop-color="#D26E30"/>
<stop offset="1" stop-color="#EF5E04"/>
</linearGradient>
</defs>
</svg>
