<svg width="24" height="24" viewBox="0 0 24 24" fill="none" xmlns="http://www.w3.org/2000/svg">
<g clip-path="url(#clip0_133_916)">
<path d="M19.8135 15.7812L19.6855 15.666C19.3572 15.3991 18.9454 15.252 18.5186 15.252C18.0389 15.252 17.579 15.4388 17.2344 15.7715C17.2426 15.7639 17.2492 15.757 17.2539 15.7529C17.2525 15.7541 17.2485 15.7577 17.2412 15.7637C17.2269 15.7754 17.205 15.7926 17.1768 15.8154C17.1201 15.8612 17.0404 15.9259 16.9443 16.0029C16.7521 16.157 16.4978 16.36 16.2441 16.5625C15.9905 16.765 15.7373 16.9671 15.5479 17.1182C15.4534 17.1935 15.3744 17.2559 15.3193 17.2998C15.2917 17.3218 15.2696 17.3388 15.2549 17.3506C15.2475 17.3565 15.2421 17.3612 15.2383 17.3643L15.2334 17.3691H15.2324C15.1985 17.396 15.158 17.4133 15.1152 17.4199C15.0725 17.4265 15.0287 17.4226 14.9883 17.4072L14.9824 17.4043C13.0677 16.6914 11.3286 15.5755 9.88281 14.1318C8.43704 12.6882 7.31829 10.9508 6.60254 9.03711L6.59473 9.01758L6.57812 8.9541C6.57542 8.93214 6.57591 8.90979 6.5791 8.8877C6.58546 8.84383 6.60324 8.80224 6.63086 8.76758L6.63281 8.76562C6.63358 8.76466 6.6352 8.76265 6.63672 8.76074C6.63973 8.75696 6.64378 8.75121 6.64941 8.74414C6.66118 8.72937 6.67919 8.70729 6.70117 8.67969C6.74512 8.62452 6.80755 8.54562 6.88281 8.45117C7.03384 8.26165 7.23605 8.00859 7.43848 7.75488C7.64088 7.50121 7.84411 7.24688 7.99805 7.05469C8.07489 6.95875 8.13896 6.8788 8.18457 6.82227C8.20736 6.79402 8.22466 6.77209 8.23633 6.75781L8.24707 6.74512C8.56773 6.40285 8.74797 5.95175 8.74805 5.48145C8.74805 5.01419 8.56962 4.56611 8.25293 4.22461C8.25145 4.22279 8.24811 4.2177 8.24121 4.20898C8.22772 4.19194 8.207 4.16659 8.18066 4.13281C8.12832 4.06569 8.055 3.97047 7.9668 3.85645C7.79032 3.62832 7.55718 3.32654 7.3252 3.02539C7.0933 2.72435 6.86246 2.42413 6.68945 2.19922C6.60298 2.0868 6.53084 1.99325 6.48047 1.92773C6.45528 1.89498 6.43536 1.8691 6.42188 1.85156C6.41517 1.84285 6.41069 1.83556 6.40723 1.83105C6.40556 1.82889 6.40419 1.82731 6.40332 1.82617L6.40137 1.82422L6.35938 1.76953L6.30762 1.72363L6.1709 1.6123C5.84098 1.36884 5.43763 1.2403 5.02441 1.25098C4.61148 1.26174 4.21616 1.41096 3.89941 1.6709L3.80469 1.75488L2.65527 2.75488L2.60938 2.79492L2.57031 2.84082C0.911331 4.8356 1.01163 7.45637 1.97656 9.97266C2.94526 12.4985 4.83611 15.0861 7.06641 17.249C9.29683 19.412 11.9256 21.2074 14.4209 22.0986C16.8937 22.9817 19.4454 23.0371 21.2363 21.3447L21.2627 21.3193L21.2871 21.291L22.1924 20.2461C22.5167 19.921 22.7131 19.4896 22.7383 19.0293C22.7648 18.5443 22.6015 18.068 22.2832 17.7012L22.2344 17.6445L22.1738 17.5986V17.5977L22.1729 17.5967C22.1717 17.5958 22.1693 17.5945 22.167 17.5928C22.1625 17.5893 22.156 17.5837 22.1475 17.5771C22.13 17.5637 22.1039 17.5446 22.0713 17.5195C22.0058 17.4692 21.9122 17.3971 21.7998 17.3105C21.575 17.1375 21.2755 16.9058 20.9746 16.6738C20.6737 16.4419 20.3717 16.2097 20.1436 16.0332C20.0294 15.9449 19.9345 15.8708 19.8672 15.8184C19.8334 15.792 19.8073 15.7715 19.79 15.7578C19.7815 15.7511 19.7767 15.7469 19.7744 15.7451C19.7829 15.7523 19.7976 15.766 19.8135 15.7812ZM19.8135 15.7812L19.8213 15.7881L19.8232 15.79C19.8201 15.7869 19.8166 15.7842 19.8135 15.7812ZM5.09766 0.748047C5.70109 0.753625 6.27779 0.993866 6.70801 1.41602C6.72096 1.43248 6.73818 1.45404 6.75879 1.48047C6.81159 1.54819 6.88578 1.64406 6.97461 1.75879C7.15225 1.98824 7.38665 2.29204 7.62012 2.59473C7.85344 2.89723 8.0857 3.19884 8.25977 3.4248C8.34663 3.53757 8.41904 3.63144 8.46973 3.69727C8.49508 3.73019 8.51573 3.75679 8.5293 3.77441C8.53575 3.78279 8.5405 3.78947 8.54395 3.79395C8.5457 3.79622 8.54794 3.79865 8.54883 3.7998L8.5498 3.80078L8.57324 3.83203L8.60059 3.86035C9.01729 4.29812 9.2499 4.88 9.24902 5.48438C9.24804 6.08877 9.01376 6.66997 8.5957 7.10645L8.57129 7.13184L8.5498 7.15918L7.3916 8.61523L7.11816 8.95996L7.28516 9.36719C7.9636 11.0157 8.96148 12.5136 10.2207 13.7754C11.4799 15.0372 12.976 16.0379 14.623 16.7197L15.0312 16.8887L15.377 16.6133L16.8418 15.4482L16.8691 15.4268L16.8936 15.4033C17.3301 14.9854 17.9113 14.7518 18.5156 14.751C19.1197 14.7502 19.701 14.982 20.1387 15.3984L20.167 15.4258L20.1982 15.4502H20.1992L20.2002 15.4512C20.2013 15.452 20.2029 15.4534 20.2051 15.4551C20.2096 15.4586 20.2168 15.4639 20.2256 15.4707C20.2432 15.4842 20.269 15.504 20.3018 15.5293C20.3676 15.58 20.4622 15.6522 20.5752 15.7393C20.8012 15.9133 21.1028 16.1466 21.4053 16.3799C21.7077 16.6131 22.011 16.847 22.2402 17.0244C22.355 17.1132 22.4509 17.1875 22.5186 17.2402C22.5415 17.2581 22.5607 17.273 22.5762 17.2852C23.0058 17.7241 23.248 18.313 23.248 18.9277C23.248 19.5498 23.0008 20.1464 22.5615 20.5869L22.5439 20.6055L22.5264 20.625L21.6445 21.6416C19.864 23.3313 17.4114 23.5834 14.6758 22.7402C11.9239 21.892 9.00671 19.9603 6.5459 17.5059C4.08542 15.0517 2.14225 12.1364 1.27734 9.38184C0.418192 6.64545 0.648216 4.18911 2.30371 2.40527L3.4248 1.43164L3.44043 1.41797L3.45508 1.4043C3.89518 0.978289 4.48517 0.742411 5.09766 0.748047ZM13.999 4.75C15.3912 4.75139 16.7265 5.30466 17.7109 6.28906C18.6951 7.27336 19.2485 8.60807 19.25 10L19.2451 10.0488C19.2355 10.0968 19.2119 10.1416 19.1768 10.1768C19.1299 10.2235 19.0662 10.25 19 10.25C18.9338 10.25 18.8701 10.2235 18.8232 10.1768C18.7764 10.13 18.7501 10.0662 18.75 10C18.75 8.74022 18.2492 7.53142 17.3584 6.64062C16.4676 5.75002 15.2596 5.25 14 5.25C13.9338 5.25 13.8701 5.22353 13.8232 5.17676C13.7764 5.12996 13.7501 5.06618 13.75 5C13.75 4.93378 13.7765 4.87011 13.8232 4.82324C13.8699 4.77658 13.9331 4.75025 13.999 4.75ZM13.999 0.75C16.4515 0.752693 18.8029 1.72782 20.5371 3.46191C22.2713 5.19609 23.2472 7.54752 23.25 10L23.2451 10.0488C23.2355 10.0968 23.2119 10.1416 23.1768 10.1768C23.1299 10.2235 23.0662 10.25 23 10.25C22.9338 10.25 22.8701 10.2235 22.8232 10.1768C22.7764 10.13 22.7501 10.0662 22.75 10V9.99902C22.7474 7.67949 21.8247 5.45563 20.1846 3.81543C18.5444 2.17524 16.3205 1.25264 14.001 1.25H14C13.9338 1.25 13.8701 1.22353 13.8232 1.17676C13.7764 1.12996 13.7501 1.06618 13.75 1C13.75 0.933777 13.7765 0.87011 13.8232 0.823242C13.8699 0.776585 13.9331 0.750254 13.999 0.75Z" fill="#151A2D" stroke="#151A2D" stroke-width="1.5"/>
</g>
<defs>
<clipPath id="clip0_133_916">
<rect width="24" height="24" fill="white"/>
</clipPath>
</defs>
</svg>
