<svg width="40" height="40" viewBox="0 0 40 40" fill="none" xmlns="http://www.w3.org/2000/svg">
<path d="M20 0.5C30.7696 0.500001 39.5 9.23045 39.5 20C39.5 30.7695 30.7695 39.5 20 39.5C9.23045 39.5 0.500003 30.7695 0.5 20C0.5 9.23045 9.23045 0.5 20 0.5Z" fill="#EBEBEB" stroke="#DEDEDE"/>
<path d="M20 30C25.5228 30 30 25.5228 30 20C30 14.4771 25.5228 10 20 10C14.4772 10 10 14.4771 10 20C10 25.5228 14.4772 30 20 30Z" fill="#1778F2"/>
<mask id="mask0_49_8449" style="mask-type:alpha" maskUnits="userSpaceOnUse" x="10" y="10" width="20" height="20">
<path d="M20 30C25.5228 30 30 25.5228 30 20C30 14.4771 25.5228 10 20 10C14.4772 10 10 14.4771 10 20C10 25.5228 14.4772 30 20 30Z" fill="#1778F2"/>
</mask>
<g mask="url(#mask0_49_8449)">
<path d="M24.1663 15.0772C24.1663 15.0772 21.4144 14.7862 20.4862 15.1821C20.3814 15.2268 20.2763 15.2707 20.1697 15.3116C19.8557 15.4321 19.1894 15.7833 18.6692 16.7091C18.6692 16.7091 18.2886 17.4414 18.3184 18.5782L18.3035 20.4543L15.8405 20.4612L15.833 23.1254H18.2961L18.311 32.4532L21.2219 32.4741L21.2443 23.1324L23.7111 23.1254L24.0881 20.4438L21.2443 20.4648L21.2555 18.4771C21.2555 18.4771 21.2667 17.4257 22.7446 17.4519L24.1552 17.4623L24.1663 15.0772Z" fill="white"/>
</g>
</svg>
