<svg width="13" height="16" viewBox="0 0 13 16" fill="none" xmlns="http://www.w3.org/2000/svg">
<path d="M10.7523 5.12246C10.6458 5.01889 10.4963 4.9718 10.35 4.99589C10.2034 5.01986 10.0768 5.11189 10.0088 5.24396C9.77491 5.6983 9.47784 6.11583 9.12831 6.48493C9.16316 6.21833 9.18069 5.95008 9.18069 5.68114C9.18069 5.16508 9.11153 4.63402 8.97506 4.10261C8.52637 2.35699 7.34988 0.880677 5.74719 0.052302C5.60775 -0.019823 5.44141 -0.0172293 5.30409 0.059052C5.16684 0.135396 5.07694 0.275364 5.06462 0.431927C4.93969 2.0183 4.12253 3.46158 2.82153 4.39258C2.80428 4.40499 2.78719 4.41755 2.77009 4.43005C2.73472 4.45599 2.70131 4.48046 2.67016 4.50102C2.66528 4.50427 2.66044 4.50758 2.65566 4.51099C1.83741 5.09683 1.16225 5.87777 0.703125 6.76961C0.236562 7.67677 0 8.65024 0 9.66289C0 10.1788 0.0691562 10.7098 0.205562 11.2414C0.925406 14.0431 3.44678 15.9999 6.33706 15.9999C9.83116 15.9999 12.6738 13.1571 12.6738 9.66289C12.6738 7.93977 11.9914 6.32727 10.7523 5.12246ZM6.33706 15.0625C3.87488 15.0625 1.72691 13.3952 1.11363 11.0082C0.996781 10.5529 0.9375 10.1002 0.9375 9.66292C0.9375 8.80083 1.13912 7.97168 1.53672 7.19861C1.92675 6.44102 2.5 5.77708 3.19491 5.27799C3.24203 5.24652 3.28559 5.21458 3.32434 5.18621C3.33931 5.17521 3.35434 5.16421 3.36831 5.15414C4.69203 4.20686 5.58919 2.80568 5.89909 1.23424C6.96587 1.9688 7.7415 3.06918 8.06709 4.33593C8.18394 4.79108 8.24322 5.24371 8.24322 5.68118C8.24322 6.32174 8.12581 6.95908 7.89425 7.57543C7.82344 7.76389 7.88091 7.97655 8.037 8.10371C8.19313 8.2308 8.41294 8.24408 8.58322 8.13667C9.35662 7.64858 10.014 7.0008 10.511 6.24174C11.3051 7.20471 11.7363 8.39896 11.7363 9.66292C11.7363 12.6402 9.31419 15.0625 6.33706 15.0625Z" fill="url(#paint0_linear_12_1085)"/>
<defs>
<linearGradient id="paint0_linear_12_1085" x1="1.82149e-07" y1="1.1733" x2="6.13748" y2="2.30384" gradientUnits="userSpaceOnUse">
<stop stop-color="#E66C13"/>
<stop offset="1" stop-color="#E38D0D"/>
</linearGradient>
</defs>
</svg>
