<svg width="40" height="40" viewBox="0 0 40 40" fill="none" xmlns="http://www.w3.org/2000/svg">
<path d="M20 0.5C30.7695 0.500003 39.5 9.23045 39.5 20C39.5 30.7696 30.7695 39.5 20 39.5C9.23045 39.5 0.500001 30.7696 0.5 20C0.5 9.23045 9.23045 0.5 20 0.5Z" fill="#EBEBEB" stroke="#DEDEDE"/>
<path d="M20.0006 10C17.2848 10 16.944 10.0119 15.8773 10.0604C14.8127 10.1092 14.086 10.2777 13.4502 10.525C12.7925 10.7804 12.2346 11.1221 11.6788 11.6781C11.1225 12.234 10.7808 12.7919 10.5246 13.4494C10.2767 14.0854 10.1079 14.8123 10.06 15.8765C10.0125 16.9431 10 17.2842 10 20C10 22.7158 10.0121 23.0556 10.0604 24.1223C10.1094 25.1869 10.2779 25.9135 10.525 26.5494C10.7806 27.2071 11.1223 27.765 11.6783 28.3208C12.234 28.8771 12.7919 29.2196 13.4492 29.475C14.0854 29.7223 14.8123 29.8908 15.8767 29.9396C16.9433 29.9881 17.284 30 19.9996 30C22.7156 30 23.0554 29.9881 24.1221 29.9396C25.1867 29.8908 25.9142 29.7223 26.5504 29.475C27.2079 29.2196 27.765 28.8771 28.3206 28.3208C28.8769 27.765 29.2185 27.2071 29.4748 26.5496C29.7206 25.9135 29.8894 25.1867 29.9394 24.1225C29.9873 23.0558 29.9998 22.7158 29.9998 20C29.9998 17.2842 29.9873 16.9433 29.9394 15.8767C29.8894 14.8121 29.7206 14.0854 29.4748 13.4496C29.2185 12.7919 28.8769 12.234 28.3206 11.6781C27.7644 11.1219 27.2081 10.7802 26.5498 10.525C25.9123 10.2777 25.1852 10.1092 24.1206 10.0604C23.054 10.0119 22.7144 10 19.9977 10H20.0006ZM19.1035 11.8021C19.3698 11.8017 19.6669 11.8021 20.0006 11.8021C22.6706 11.8021 22.9871 11.8117 24.0415 11.8596C25.0165 11.9042 25.5456 12.0671 25.8981 12.204C26.3648 12.3852 26.6975 12.6019 27.0473 12.9519C27.3973 13.3019 27.614 13.6352 27.7956 14.1019C27.9325 14.454 28.0956 14.9831 28.14 15.9581C28.1879 17.0123 28.1983 17.329 28.1983 19.9977C28.1983 22.6665 28.1879 22.9831 28.14 24.0373C28.0954 25.0123 27.9325 25.5415 27.7956 25.8935C27.6144 26.3602 27.3973 26.6925 27.0473 27.0423C26.6973 27.3923 26.365 27.609 25.8981 27.7902C25.546 27.9277 25.0165 28.0902 24.0415 28.1348C22.9873 28.1827 22.6706 28.1931 20.0006 28.1931C17.3304 28.1931 17.014 28.1827 15.9598 28.1348C14.9848 28.0898 14.4556 27.9269 14.1029 27.79C13.6363 27.6087 13.3029 27.3921 12.9529 27.0421C12.6029 26.6921 12.3863 26.3596 12.2046 25.8927C12.0677 25.5406 11.9046 25.0115 11.8602 24.0365C11.8123 22.9823 11.8027 22.6656 11.8027 19.9952C11.8027 17.3248 11.8123 17.0098 11.8602 15.9556C11.9048 14.9806 12.0677 14.4515 12.2046 14.099C12.3858 13.6323 12.6029 13.299 12.9529 12.949C13.3029 12.599 13.6363 12.3823 14.1029 12.2006C14.4554 12.0631 14.9848 11.9006 15.9598 11.8558C16.8823 11.8142 17.2398 11.8017 19.1035 11.7996V11.8021ZM25.3385 13.4625C25.1012 13.4625 24.8692 13.5329 24.6718 13.6648C24.4745 13.7966 24.3207 13.9841 24.2298 14.2034C24.139 14.4227 24.1153 14.664 24.1616 14.8968C24.208 15.1295 24.3223 15.3434 24.4902 15.5112C24.658 15.679 24.8719 15.7932 25.1047 15.8395C25.3375 15.8857 25.5788 15.8619 25.7981 15.771C26.0173 15.6801 26.2047 15.5263 26.3365 15.3289C26.4683 15.1315 26.5386 14.8994 26.5385 14.6621C26.5385 13.9996 26.001 13.4621 25.3385 13.4621V13.4625ZM20.0006 14.8646C17.1646 14.8646 14.8652 17.164 14.8652 20C14.8652 22.836 17.1646 25.1344 20.0006 25.1344C22.8367 25.1344 25.1354 22.836 25.1354 20C25.1354 17.164 22.8365 14.8646 20.0004 14.8646H20.0006ZM20.0006 16.6667C21.8415 16.6667 23.334 18.159 23.334 20C23.334 21.8408 21.8415 23.3333 20.0006 23.3333C18.1596 23.3333 16.6673 21.8408 16.6673 20C16.6673 18.159 18.1596 16.6667 20.0006 16.6667Z" fill="white"/>
<path d="M20.0006 10C17.2848 10 16.944 10.0119 15.8773 10.0604C14.8127 10.1092 14.086 10.2777 13.4502 10.525C12.7925 10.7804 12.2346 11.1221 11.6788 11.6781C11.1225 12.234 10.7808 12.7919 10.5246 13.4494C10.2767 14.0854 10.1079 14.8123 10.06 15.8765C10.0125 16.9431 10 17.2842 10 20C10 22.7158 10.0121 23.0556 10.0604 24.1223C10.1094 25.1869 10.2779 25.9135 10.525 26.5494C10.7806 27.2071 11.1223 27.765 11.6783 28.3208C12.234 28.8771 12.7919 29.2196 13.4492 29.475C14.0854 29.7223 14.8123 29.8908 15.8767 29.9396C16.9433 29.9881 17.284 30 19.9996 30C22.7156 30 23.0554 29.9881 24.1221 29.9396C25.1867 29.8908 25.9142 29.7223 26.5504 29.475C27.2079 29.2196 27.765 28.8771 28.3206 28.3208C28.8769 27.765 29.2185 27.2071 29.4748 26.5496C29.7206 25.9135 29.8894 25.1867 29.9394 24.1225C29.9873 23.0558 29.9998 22.7158 29.9998 20C29.9998 17.2842 29.9873 16.9433 29.9394 15.8767C29.8894 14.8121 29.7206 14.0854 29.4748 13.4496C29.2185 12.7919 28.8769 12.234 28.3206 11.6781C27.7644 11.1219 27.2081 10.7802 26.5498 10.525C25.9123 10.2777 25.1852 10.1092 24.1206 10.0604C23.054 10.0119 22.7144 10 19.9977 10H20.0006ZM19.1035 11.8021C19.3698 11.8017 19.6669 11.8021 20.0006 11.8021C22.6706 11.8021 22.9871 11.8117 24.0415 11.8596C25.0165 11.9042 25.5456 12.0671 25.8981 12.204C26.3648 12.3852 26.6975 12.6019 27.0473 12.9519C27.3973 13.3019 27.614 13.6352 27.7956 14.1019C27.9325 14.454 28.0956 14.9831 28.14 15.9581C28.1879 17.0123 28.1983 17.329 28.1983 19.9977C28.1983 22.6665 28.1879 22.9831 28.14 24.0373C28.0954 25.0123 27.9325 25.5415 27.7956 25.8935C27.6144 26.3602 27.3973 26.6925 27.0473 27.0423C26.6973 27.3923 26.365 27.609 25.8981 27.7902C25.546 27.9277 25.0165 28.0902 24.0415 28.1348C22.9873 28.1827 22.6706 28.1931 20.0006 28.1931C17.3304 28.1931 17.014 28.1827 15.9598 28.1348C14.9848 28.0898 14.4556 27.9269 14.1029 27.79C13.6363 27.6087 13.3029 27.3921 12.9529 27.0421C12.6029 26.6921 12.3863 26.3596 12.2046 25.8927C12.0677 25.5406 11.9046 25.0115 11.8602 24.0365C11.8123 22.9823 11.8027 22.6656 11.8027 19.9952C11.8027 17.3248 11.8123 17.0098 11.8602 15.9556C11.9048 14.9806 12.0677 14.4515 12.2046 14.099C12.3858 13.6323 12.6029 13.299 12.9529 12.949C13.3029 12.599 13.6363 12.3823 14.1029 12.2006C14.4554 12.0631 14.9848 11.9006 15.9598 11.8558C16.8823 11.8142 17.2398 11.8017 19.1035 11.7996V11.8021ZM25.3385 13.4625C25.1012 13.4625 24.8692 13.5329 24.6718 13.6648C24.4745 13.7966 24.3207 13.9841 24.2298 14.2034C24.139 14.4227 24.1153 14.664 24.1616 14.8968C24.208 15.1295 24.3223 15.3434 24.4902 15.5112C24.658 15.679 24.8719 15.7932 25.1047 15.8395C25.3375 15.8857 25.5788 15.8619 25.7981 15.771C26.0173 15.6801 26.2047 15.5263 26.3365 15.3289C26.4683 15.1315 26.5386 14.8994 26.5385 14.6621C26.5385 13.9996 26.001 13.4621 25.3385 13.4621V13.4625ZM20.0006 14.8646C17.1646 14.8646 14.8652 17.164 14.8652 20C14.8652 22.836 17.1646 25.1344 20.0006 25.1344C22.8367 25.1344 25.1354 22.836 25.1354 20C25.1354 17.164 22.8365 14.8646 20.0004 14.8646H20.0006ZM20.0006 16.6667C21.8415 16.6667 23.334 18.159 23.334 20C23.334 21.8408 21.8415 23.3333 20.0006 23.3333C18.1596 23.3333 16.6673 21.8408 16.6673 20C16.6673 18.159 18.1596 16.6667 20.0006 16.6667Z" fill="url(#paint0_radial_49_8450)"/>
<defs>
<radialGradient id="paint0_radial_49_8450" cx="0" cy="0" r="1" gradientUnits="userSpaceOnUse" gradientTransform="translate(15.3125 31.5404) rotate(-90) scale(19.8215 18.4353)">
<stop stop-color="#FFDD55"/>
<stop offset="0.1" stop-color="#FFDD55"/>
<stop offset="0.5" stop-color="#FF543E"/>
<stop offset="1" stop-color="#C837AB"/>
</radialGradient>
</defs>
</svg>
