<svg width="32" height="32" viewBox="0 0 32 32" fill="none" xmlns="http://www.w3.org/2000/svg">
<g clip-path="url(#clip0_133_919)">
<path d="M16 1.66699C12.5064 1.66699 9.66699 4.50638 9.66699 8C9.66699 11.4936 12.5064 14.333 16 14.333C19.4936 14.333 22.333 11.4936 22.333 8C22.333 4.50638 19.4936 1.66699 16 1.66699ZM15.667 15.042L14.833 14.9023C11.5271 14.3459 9 11.4603 9 8C9 4.14028 12.1403 1 16 1C19.8597 1 23 4.14028 23 8C23 11.4603 20.4729 14.3459 17.167 14.9023L16.333 15.042V30.667C16.3328 30.8506 16.1836 31 16 31C15.8164 31 15.6672 30.8506 15.667 30.667V15.042Z" fill="#151A2D" stroke="#151A2D" stroke-width="2"/>
</g>
<defs>
<clipPath id="clip0_133_919">
<rect width="32" height="32" fill="white"/>
</clipPath>
</defs>
</svg>
