<svg width="19" height="19" viewBox="0 0 19 19" fill="none" xmlns="http://www.w3.org/2000/svg">
<rect width="18.6" height="18.6" rx="3.8" fill="url(#paint0_linear_49_1099)"/>
<g clip-path="url(#clip0_49_1099)">
<path d="M13.0811 13.3391H5.51855C5.45018 13.3391 5.3846 13.3119 5.33625 13.2636C5.2879 13.2153 5.26074 13.1497 5.26074 13.0813C5.26074 13.0129 5.2879 12.9473 5.33625 12.899C5.3846 12.8506 5.45018 12.8235 5.51855 12.8235H6.24387C5.83543 12.5486 5.50081 12.1775 5.26944 11.743C5.03806 11.3084 4.91703 10.8236 4.91699 10.3313V9.21411H4.83105C4.76268 9.21411 4.6971 9.18695 4.64875 9.1386C4.6004 9.09025 4.57324 9.02467 4.57324 8.9563C4.57324 8.88792 4.6004 8.82235 4.64875 8.774C4.6971 8.72565 4.76268 8.69849 4.83105 8.69849H13.7686C13.8369 8.69849 13.9025 8.72565 13.9509 8.774C13.9992 8.82235 14.0264 8.88792 14.0264 8.9563C14.0264 9.02467 13.9992 9.09025 13.9509 9.1386C13.9025 9.18695 13.8369 9.21411 13.7686 9.21411H13.6826V10.3313C13.6826 10.8236 13.5615 11.3084 13.3302 11.743C13.0988 12.1775 12.7642 12.5486 12.3557 12.8235H13.0811C13.1494 12.8235 13.215 12.8506 13.2634 12.899C13.3117 12.9473 13.3389 13.0129 13.3389 13.0813C13.3389 13.1497 13.3117 13.2153 13.2634 13.2636C13.215 13.3119 13.1494 13.3391 13.0811 13.3391ZM7.9248 12.8235H10.6748C11.2909 12.8226 11.8848 12.5939 12.3424 12.1814C12.7999 11.7689 13.0888 11.2018 13.1532 10.5891H5.44637C5.51086 11.2018 5.79967 11.7689 6.25723 12.1814C6.71479 12.5939 7.30876 12.8226 7.9248 12.8235ZM5.43262 10.0735H13.167V9.21411H5.43262V10.0735ZM10.6748 7.83911C10.6067 7.83822 10.5416 7.81077 10.4935 7.76262C10.4453 7.71446 10.4179 7.6494 10.417 7.5813V7.37849C10.4164 7.19064 10.4531 7.00454 10.5251 6.83104C10.5971 6.65753 10.7029 6.50008 10.8364 6.36786C10.9214 6.28313 10.9889 6.18241 11.0349 6.07151C11.081 5.9606 11.1046 5.84169 11.1045 5.72161V5.5188C11.1045 5.45042 11.1317 5.38485 11.18 5.3365C11.2284 5.28815 11.2939 5.26099 11.3623 5.26099C11.4307 5.26099 11.4963 5.28815 11.5446 5.3365C11.593 5.38485 11.6201 5.45042 11.6201 5.5188V5.72161C11.6207 5.90946 11.584 6.09556 11.512 6.26906C11.44 6.44256 11.3342 6.60001 11.2007 6.73224C11.1157 6.81697 11.0482 6.91768 11.0022 7.02859C10.9561 7.1395 10.9325 7.25841 10.9326 7.37849V7.5813C10.9317 7.6494 10.9043 7.71446 10.8561 7.76262C10.808 7.81077 10.7429 7.83822 10.6748 7.83911ZM8.95605 7.83911C8.88796 7.83822 8.8229 7.81077 8.77474 7.76262C8.72658 7.71446 8.69913 7.6494 8.69824 7.5813V7.37849C8.69763 7.19064 8.73439 7.00454 8.80639 6.83104C8.87839 6.65753 8.98418 6.50008 9.11762 6.36786C9.2027 6.28313 9.27018 6.18241 9.3162 6.07151C9.36221 5.9606 9.38585 5.84169 9.38574 5.72161V5.5188C9.38574 5.45042 9.4129 5.38485 9.46125 5.3365C9.5096 5.28815 9.57518 5.26099 9.64355 5.26099C9.71193 5.26099 9.77751 5.28815 9.82586 5.3365C9.87421 5.38485 9.90137 5.45042 9.90137 5.5188V5.72161C9.90198 5.90946 9.86522 6.09556 9.79322 6.26906C9.72122 6.44256 9.61543 6.60001 9.48199 6.73224C9.39691 6.81697 9.32943 6.91768 9.28341 7.02859C9.2374 7.1395 9.21376 7.25841 9.21387 7.37849V7.5813C9.21298 7.6494 9.18553 7.71446 9.13737 7.76262C9.08921 7.81077 9.02415 7.83822 8.95605 7.83911ZM7.2373 7.83911C7.16921 7.83822 7.10415 7.81077 7.05599 7.76262C7.00783 7.71446 6.98038 7.6494 6.97949 7.5813V7.37849C6.97888 7.19064 7.01564 7.00454 7.08764 6.83104C7.15964 6.65753 7.26543 6.50008 7.39887 6.36786C7.48395 6.28313 7.55143 6.18241 7.59745 6.07151C7.64346 5.9606 7.6671 5.84169 7.66699 5.72161V5.5188C7.66699 5.45042 7.69415 5.38485 7.7425 5.3365C7.79085 5.28815 7.85643 5.26099 7.9248 5.26099C7.99318 5.26099 8.05876 5.28815 8.10711 5.3365C8.15545 5.38485 8.18262 5.45042 8.18262 5.5188V5.72161C8.18323 5.90946 8.14647 6.09556 8.07447 6.26906C8.00247 6.44256 7.89668 6.60001 7.76324 6.73224C7.67816 6.81697 7.61068 6.91768 7.56466 7.02859C7.51865 7.1395 7.49501 7.25841 7.49512 7.37849V7.5813C7.49423 7.6494 7.46678 7.71446 7.41862 7.76262C7.37046 7.81077 7.3054 7.83822 7.2373 7.83911Z" fill="white"/>
</g>
<defs>
<linearGradient id="paint0_linear_49_1099" x1="3.98831e-07" y1="1.364" x2="13.7381" y2="4.1059" gradientUnits="userSpaceOnUse">
<stop stop-color="#D26E30"/>
<stop offset="1" stop-color="#EF5E04"/>
</linearGradient>
<clipPath id="clip0_49_1099">
<rect width="11" height="11" fill="white" transform="translate(3.7998 3.80005)"/>
</clipPath>
</defs>
</svg>
