<svg width="40" height="40" viewBox="0 0 40 40" fill="none" xmlns="http://www.w3.org/2000/svg">
<path d="M20 0.5C30.7696 0.500001 39.5 9.23045 39.5 20C39.5 30.7696 30.7696 39.5 20 39.5C9.23045 39.5 0.5 30.7696 0.5 20C0.5 9.23045 9.23045 0.5 20 0.5Z" fill="#EBEBEB" stroke="#DEDEDE"/>
<path d="M21.0381 17.2603L20.9424 17.1108L26.4453 10.6675H28.0381L21.6143 18.1011L28.6172 28.3335H23.4766L18.8008 21.5024L12.9766 28.3335H11.3838L18.1172 20.5142L18.1865 20.604L11.3857 10.6675H16.5264L21.0381 17.2603ZM24.0879 27.1753H26.4199L15.915 11.8257H13.582L24.0879 27.1753Z" fill="#262626"/>
</svg>
